<svg width="16" height="16" viewBox="0 0 16 16" fill="none" xmlns="http://www.w3.org/2000/svg">
<g filter="url(#filter0_i)">
<rect x="2" width="12" height="16" rx="2" fill="#9F7AEA"/>
<rect x="2" width="12" height="16" rx="2" fill="url(#paint0_linear)"/>
</g>
<rect x="2.5" y="0.5" width="11" height="15" rx="1.5" stroke="#6B46C1"/>
<g filter="url(#filter1_d)">
<path d="M5.98438 6.04297C5.92708 6.10286 5.86198 6.15234 5.78906 6.19141C5.71615 6.22786 5.63932 6.2513 5.55859 6.26172C5.47786 6.26953 5.40104 6.25651 5.32812 6.22266C5.25781 6.1888 5.19661 6.14062 5.14453 6.07812C5.03255 5.94792 4.97656 5.81641 4.97656 5.68359C4.97656 5.55078 4.9974 5.45182 5.03906 5.38672C5.08333 5.31901 5.13802 5.26432 5.20312 5.22266C5.32812 5.14193 5.44531 5.10156 5.55469 5.10156C5.66667 5.10156 5.7526 5.10938 5.8125 5.125C5.875 5.14062 5.93229 5.16667 5.98438 5.20312C6.11198 5.28906 6.17578 5.39453 6.17578 5.51953C6.17578 5.64193 6.15755 5.74479 6.12109 5.82812C6.08724 5.90885 6.04167 5.98047 5.98438 6.04297ZM5.18359 10.2695C5.2513 10.2695 5.28516 10.3138 5.28516 10.4023C5.28516 10.5195 5.23177 10.6406 5.125 10.7656C4.96875 10.9479 4.75911 11.0391 4.49609 11.0391C4.19401 11.0391 3.98698 10.9167 3.875 10.6719C3.83333 10.5859 3.8125 10.4818 3.8125 10.3594C3.8125 10.237 3.83333 10.1016 3.875 9.95312C3.91927 9.80208 3.97266 9.64453 4.03516 9.48047C4.10026 9.3138 4.17057 9.14583 4.24609 8.97656L4.45312 8.48438C4.60417 8.11719 4.67969 7.875 4.67969 7.75781C4.67969 7.64062 4.66667 7.5638 4.64062 7.52734C4.61719 7.48828 4.59115 7.45833 4.5625 7.4375L4.48438 7.38281C4.45833 7.36458 4.44531 7.33333 4.44531 7.28906C4.44531 7.24219 4.46224 7.19792 4.49609 7.15625C4.53255 7.11458 4.57943 7.07812 4.63672 7.04688C4.75391 6.98698 4.89062 6.95703 5.04688 6.95703C5.42969 6.95703 5.62109 7.05729 5.62109 7.25781C5.62109 7.49219 5.5599 7.76042 5.4375 8.0625C5.3151 8.36198 5.21094 8.60417 5.125 8.78906L4.89062 9.32812C4.71875 9.72396 4.63281 10.0091 4.63281 10.1836C4.63281 10.2982 4.6901 10.3555 4.80469 10.3555C4.91667 10.3555 5.0013 10.3411 5.05859 10.3125C5.11589 10.2839 5.15755 10.2695 5.18359 10.2695ZM9.10938 7.69531C8.95833 7.69531 8.68229 7.91406 8.28125 8.35156C7.98177 8.69271 7.76432 8.94922 7.62891 9.12109L7.27734 9.56641C7.1263 9.85286 7.00781 10.0911 6.92188 10.2812L6.71094 10.7344C6.65625 10.8464 6.60807 10.9258 6.56641 10.9727C6.52734 11.0169 6.47266 11.0391 6.40234 11.0391C6.33464 11.0391 6.26823 11.026 6.20312 11C6.14062 10.9766 6.08594 10.9453 6.03906 10.9062C5.9401 10.8229 5.89062 10.7318 5.89062 10.6328C5.89062 10.5938 5.91927 10.5169 5.97656 10.4023L6.125 10.0859C6.17188 9.99219 6.22656 9.8724 6.28906 9.72656L6.50781 9.19141C6.8151 8.42318 6.96875 7.92708 6.96875 7.70312C6.96875 7.58333 6.92969 7.49479 6.85156 7.4375L6.77344 7.38281C6.7474 7.36458 6.73438 7.33333 6.73438 7.28906C6.73438 7.24219 6.7513 7.19792 6.78516 7.15625C6.82161 7.11458 6.86849 7.07812 6.92578 7.04688C7.04297 6.98698 7.16016 6.95703 7.27734 6.95703C7.39714 6.95703 7.49089 6.97005 7.55859 6.99609C7.6263 7.02214 7.6849 7.05729 7.73438 7.10156C7.83333 7.19271 7.88281 7.28776 7.88281 7.38672C7.88281 7.48568 7.86979 7.58594 7.84375 7.6875C7.81771 7.78646 7.78516 7.88802 7.74609 7.99219C7.70703 8.09375 7.66536 8.19271 7.62109 8.28906C7.51693 8.51302 7.45182 8.65104 7.42578 8.70312C7.40234 8.7526 7.39583 8.77083 7.40625 8.75781C7.88281 8.14062 8.16927 7.77604 8.26562 7.66406C8.46615 7.43229 8.6224 7.27344 8.73438 7.1875C8.9401 7.03385 9.13411 6.95703 9.31641 6.95703C9.5013 6.95703 9.64844 7.01432 9.75781 7.12891C9.86719 7.24349 9.92188 7.39453 9.92188 7.58203C9.92188 7.74609 9.88021 7.9388 9.79688 8.16016C9.71354 8.38151 9.65755 8.53646 9.62891 8.625L10.2031 7.86719L10.5234 7.48438C10.7161 7.26823 10.8854 7.1263 11.0312 7.05859C11.1771 6.99089 11.2956 6.95703 11.3867 6.95703C11.4805 6.95703 11.5716 6.97396 11.6602 7.00781C11.7513 7.04167 11.8281 7.08984 11.8906 7.15234C12.0234 7.27995 12.0898 7.44922 12.0898 7.66016C12.0898 7.86328 12.043 8.07161 11.9492 8.28516C11.8555 8.4987 11.7734 8.67448 11.7031 8.8125C11.6328 8.94792 11.5651 9.08464 11.5 9.22266C11.3099 9.63672 11.2148 9.94401 11.2148 10.1445C11.2148 10.2852 11.2721 10.3555 11.3867 10.3555C11.4961 10.3555 11.5951 10.332 11.6836 10.2852C11.7747 10.2383 11.8333 10.2148 11.8594 10.2148C11.9141 10.2148 11.9414 10.2422 11.9414 10.2969C11.9414 10.5286 11.8229 10.7227 11.5859 10.8789C11.4271 10.9857 11.2812 11.0391 11.1484 11.0391C11.0182 11.0391 10.9128 11.0234 10.832 10.9922C10.7513 10.9609 10.6784 10.9115 10.6133 10.8438C10.4674 10.6927 10.3945 10.5039 10.3945 10.2773C10.3945 10.0508 10.4232 9.84245 10.4805 9.65234C10.5378 9.46224 10.6055 9.27865 10.6836 9.10156C10.7617 8.92188 10.8398 8.75781 10.918 8.60938C10.9987 8.45833 11.0599 8.33854 11.1016 8.25C11.1849 8.06771 11.2266 7.93359 11.2266 7.84766C11.2266 7.74609 11.1732 7.69531 11.0664 7.69531C10.9258 7.69531 10.6732 7.92839 10.3086 8.39453C10.0326 8.75651 9.84115 9.01693 9.73438 9.17578L9.46484 9.56641C9.3138 9.85286 9.19792 10.0911 9.11719 10.2812L8.91797 10.7344C8.86849 10.8464 8.82552 10.9258 8.78906 10.9727C8.7526 11.0169 8.70182 11.0391 8.63672 11.0391C8.57161 11.0391 8.50781 11.0286 8.44531 11.0078C8.38542 10.987 8.33333 10.9596 8.28906 10.9258C8.1875 10.8503 8.13672 10.7708 8.13672 10.6875C8.13672 10.6016 8.16406 10.4857 8.21875 10.3398C8.27604 10.1914 8.34635 10.026 8.42969 9.84375L8.97656 8.6875C9.17188 8.25781 9.26953 7.98568 9.26953 7.87109C9.26953 7.75391 9.21615 7.69531 9.10938 7.69531ZM9.49609 8.79688C9.4987 8.79688 9.5 8.79557 9.5 8.79297L9.50391 8.78516C9.4987 8.79036 9.49609 8.79427 9.49609 8.79688Z" fill="white"/>
</g>
<g filter="url(#filter2_di)">
<path d="M9 0H13V6L11 4.90909L9 6V0Z" fill="#E53E3E"/>
<path d="M10.7606 4.47014L9.5 5.15773V0.5H12.5V5.15773L11.2394 4.47014L11 4.33955L10.7606 4.47014Z" stroke="#9B2C2C"/>
</g>
<defs>
<filter id="filter0_i" x="2" y="0" width="12" height="16" filterUnits="userSpaceOnUse" color-interpolation-filters="sRGB">
<feFlood flood-opacity="0" result="BackgroundImageFix"/>
<feBlend mode="normal" in="SourceGraphic" in2="BackgroundImageFix" result="shape"/>
<feColorMatrix in="SourceAlpha" type="matrix" values="0 0 0 0 0 0 0 0 0 0 0 0 0 0 0 0 0 0 127 0" result="hardAlpha"/>
<feOffset dy="2"/>
<feComposite in2="hardAlpha" operator="arithmetic" k2="-1" k3="1"/>
<feColorMatrix type="matrix" values="0 0 0 0 0.717647 0 0 0 0 0.580392 0 0 0 0 0.956863 0 0 0 1 0"/>
<feBlend mode="normal" in2="shape" result="effect1_innerShadow"/>
</filter>
<filter id="filter1_d" x="3.8125" y="5.10156" width="8.27734" height="6.9375" filterUnits="userSpaceOnUse" color-interpolation-filters="sRGB">
<feFlood flood-opacity="0" result="BackgroundImageFix"/>
<feColorMatrix in="SourceAlpha" type="matrix" values="0 0 0 0 0 0 0 0 0 0 0 0 0 0 0 0 0 0 127 0" result="hardAlpha"/>
<feOffset dy="1"/>
<feComposite in2="hardAlpha" operator="out"/>
<feColorMatrix type="matrix" values="0 0 0 0 0.501961 0 0 0 0 0.352941 0 0 0 0 0.835294 0 0 0 1 0"/>
<feBlend mode="normal" in2="BackgroundImageFix" result="effect1_dropShadow"/>
<feBlend mode="normal" in="SourceGraphic" in2="effect1_dropShadow" result="shape"/>
</filter>
<filter id="filter2_di" x="9" y="0" width="4" height="7" filterUnits="userSpaceOnUse" color-interpolation-filters="sRGB">
<feFlood flood-opacity="0" result="BackgroundImageFix"/>
<feColorMatrix in="SourceAlpha" type="matrix" values="0 0 0 0 0 0 0 0 0 0 0 0 0 0 0 0 0 0 127 0" result="hardAlpha"/>
<feOffset dy="1"/>
<feComposite in2="hardAlpha" operator="out"/>
<feColorMatrix type="matrix" values="0 0 0 0 0.501961 0 0 0 0 0.352941 0 0 0 0 0.835294 0 0 0 1 0"/>
<feBlend mode="normal" in2="BackgroundImageFix" result="effect1_dropShadow"/>
<feBlend mode="normal" in="SourceGraphic" in2="effect1_dropShadow" result="shape"/>
<feColorMatrix in="SourceAlpha" type="matrix" values="0 0 0 0 0 0 0 0 0 0 0 0 0 0 0 0 0 0 127 0" result="hardAlpha"/>
<feOffset dy="2"/>
<feComposite in2="hardAlpha" operator="arithmetic" k2="-1" k3="1"/>
<feColorMatrix type="matrix" values="0 0 0 0 0.960784 0 0 0 0 0.396078 0 0 0 0 0.396078 0 0 0 1 0"/>
<feBlend mode="normal" in2="shape" result="effect2_innerShadow"/>
</filter>
<linearGradient id="paint0_linear" x1="8" y1="0" x2="8" y2="16" gradientUnits="userSpaceOnUse">
<stop stop-color="#9F7AEA"/>
<stop offset="1" stop-color="#6B46C1" stop-opacity="0.2"/>
</linearGradient>
</defs>
</svg>
