<svg width="256" height="256" viewBox="0 0 256 256" fill="none" xmlns="http://www.w3.org/2000/svg">
<g clip-path="url(#clip0)">
<g filter="url(#filter0_d)">
<ellipse cx="128" cy="228" rx="80" ry="15" fill="#C4C4C4"/>
</g>
<g filter="url(#filter1_i)">
<rect x="42" y="13" width="172" height="230" rx="8" fill="#9F7AEA"/>
<rect x="42" y="13" width="172" height="230" rx="8" fill="url(#paint0_linear)"/>
</g>
<rect x="43" y="14" width="170" height="228" rx="7" stroke="#6B46C1" stroke-width="2"/>
<g filter="url(#filter2_d)">
<path d="M103.812 106.516C103.125 107.234 102.344 107.828 101.469 108.297C100.594 108.734 99.6719 109.016 98.7031 109.141C97.7344 109.234 96.8125 109.078 95.9375 108.672C95.0938 108.266 94.3594 107.688 93.7344 106.938C92.3906 105.375 91.7188 103.797 91.7188 102.203C91.7188 100.609 91.9688 99.4219 92.4688 98.6406C93 97.8281 93.6562 97.1719 94.4375 96.6719C95.9375 95.7031 97.3438 95.2188 98.6562 95.2188C100 95.2188 101.031 95.3125 101.75 95.5C102.5 95.6875 103.188 96 103.812 96.4375C105.344 97.4688 106.109 98.7344 106.109 100.234C106.109 101.703 105.891 102.938 105.453 103.938C105.047 104.906 104.5 105.766 103.812 106.516ZM94.2031 157.234C95.0156 157.234 95.4219 157.766 95.4219 158.828C95.4219 160.234 94.7812 161.688 93.5 163.188C91.625 165.375 89.1094 166.469 85.9531 166.469C82.3281 166.469 79.8438 165 78.5 162.062C78 161.031 77.75 159.781 77.75 158.312C77.75 156.844 78 155.219 78.5 153.438C79.0312 151.625 79.6719 149.734 80.4219 147.766C81.2031 145.766 82.0469 143.75 82.9531 141.719L85.4375 135.812C87.25 131.406 88.1562 128.5 88.1562 127.094C88.1562 125.688 88 124.766 87.6875 124.328C87.4062 123.859 87.0938 123.5 86.75 123.25L85.8125 122.594C85.5 122.375 85.3438 122 85.3438 121.469C85.3438 120.906 85.5469 120.375 85.9531 119.875C86.3906 119.375 86.9531 118.938 87.6406 118.562C89.0469 117.844 90.6875 117.484 92.5625 117.484C97.1562 117.484 99.4531 118.688 99.4531 121.094C99.4531 123.906 98.7188 127.125 97.25 130.75C95.7812 134.344 94.5312 137.25 93.5 139.469L90.6875 145.938C88.625 150.688 87.5938 154.109 87.5938 156.203C87.5938 157.578 88.2812 158.266 89.6562 158.266C91 158.266 92.0156 158.094 92.7031 157.75C93.3906 157.406 93.8906 157.234 94.2031 157.234ZM141.312 126.344C139.5 126.344 136.188 128.969 131.375 134.219C127.781 138.312 125.172 141.391 123.547 143.453L119.328 148.797C117.516 152.234 116.094 155.094 115.062 157.375L112.531 162.812C111.875 164.156 111.297 165.109 110.797 165.672C110.328 166.203 109.672 166.469 108.828 166.469C108.016 166.469 107.219 166.312 106.438 166C105.688 165.719 105.031 165.344 104.469 164.875C103.281 163.875 102.688 162.781 102.688 161.594C102.688 161.125 103.031 160.203 103.719 158.828L105.5 155.031C106.062 153.906 106.719 152.469 107.469 150.719L110.094 144.297C113.781 135.078 115.625 129.125 115.625 126.438C115.625 125 115.156 123.938 114.219 123.25L113.281 122.594C112.969 122.375 112.812 122 112.812 121.469C112.812 120.906 113.016 120.375 113.422 119.875C113.859 119.375 114.422 118.938 115.109 118.562C116.516 117.844 117.922 117.484 119.328 117.484C120.766 117.484 121.891 117.641 122.703 117.953C123.516 118.266 124.219 118.688 124.812 119.219C126 120.312 126.594 121.453 126.594 122.641C126.594 123.828 126.438 125.031 126.125 126.25C125.812 127.438 125.422 128.656 124.953 129.906C124.484 131.125 123.984 132.312 123.453 133.469C122.203 136.156 121.422 137.812 121.109 138.438C120.828 139.031 120.75 139.25 120.875 139.094C126.594 131.688 130.031 127.312 131.188 125.969C133.594 123.188 135.469 121.281 136.812 120.25C139.281 118.406 141.609 117.484 143.797 117.484C146.016 117.484 147.781 118.172 149.094 119.547C150.406 120.922 151.062 122.734 151.062 124.984C151.062 126.953 150.562 129.266 149.562 131.922C148.562 134.578 147.891 136.438 147.547 137.5L154.438 128.406L158.281 123.812C160.594 121.219 162.625 119.516 164.375 118.703C166.125 117.891 167.547 117.484 168.641 117.484C169.766 117.484 170.859 117.688 171.922 118.094C173.016 118.5 173.938 119.078 174.688 119.828C176.281 121.359 177.078 123.391 177.078 125.922C177.078 128.359 176.516 130.859 175.391 133.422C174.266 135.984 173.281 138.094 172.438 139.75C171.594 141.375 170.781 143.016 170 144.672C167.719 149.641 166.578 153.328 166.578 155.734C166.578 157.422 167.266 158.266 168.641 158.266C169.953 158.266 171.141 157.984 172.203 157.422C173.297 156.859 174 156.578 174.312 156.578C174.969 156.578 175.297 156.906 175.297 157.562C175.297 160.344 173.875 162.672 171.031 164.547C169.125 165.828 167.375 166.469 165.781 166.469C164.219 166.469 162.953 166.281 161.984 165.906C161.016 165.531 160.141 164.938 159.359 164.125C157.609 162.312 156.734 160.047 156.734 157.328C156.734 154.609 157.078 152.109 157.766 149.828C158.453 147.547 159.266 145.344 160.203 143.219C161.141 141.062 162.078 139.094 163.016 137.312C163.984 135.5 164.719 134.062 165.219 133C166.219 130.812 166.719 129.203 166.719 128.172C166.719 126.953 166.078 126.344 164.797 126.344C163.109 126.344 160.078 129.141 155.703 134.734C152.391 139.078 150.094 142.203 148.812 144.109L145.578 148.797C143.766 152.234 142.375 155.094 141.406 157.375L139.016 162.812C138.422 164.156 137.906 165.109 137.469 165.672C137.031 166.203 136.422 166.469 135.641 166.469C134.859 166.469 134.094 166.344 133.344 166.094C132.625 165.844 132 165.516 131.469 165.109C130.25 164.203 129.641 163.25 129.641 162.25C129.641 161.219 129.969 159.828 130.625 158.078C131.312 156.297 132.156 154.312 133.156 152.125L139.719 138.25C142.062 133.094 143.234 129.828 143.234 128.453C143.234 127.047 142.594 126.344 141.312 126.344ZM145.953 139.562C145.984 139.562 146 139.547 146 139.516L146.047 139.422C145.984 139.484 145.953 139.531 145.953 139.562Z" fill="white"/>
</g>
<g filter="url(#filter3_di)">
<path d="M150 13H198V88L174 74.3636L150 88V13Z" fill="#E53E3E"/>
<path d="M173.506 73.4942L151 86.2817V14H197V86.2817L174.494 73.4942L174 73.2135L173.506 73.4942Z" stroke="#9B2C2C" stroke-width="2"/>
</g>
</g>
<defs>
<filter id="filter0_d" x="38" y="207" width="180" height="50" filterUnits="userSpaceOnUse" color-interpolation-filters="sRGB">
<feFlood flood-opacity="0" result="BackgroundImageFix"/>
<feColorMatrix in="SourceAlpha" type="matrix" values="0 0 0 0 0 0 0 0 0 0 0 0 0 0 0 0 0 0 127 0" result="hardAlpha"/>
<feOffset dy="4"/>
<feGaussianBlur stdDeviation="5"/>
<feComposite in2="hardAlpha" operator="out"/>
<feColorMatrix type="matrix" values="0 0 0 0 0 0 0 0 0 0 0 0 0 0 0 0 0 0 0.25 0"/>
<feBlend mode="normal" in2="BackgroundImageFix" result="effect1_dropShadow"/>
<feBlend mode="normal" in="SourceGraphic" in2="effect1_dropShadow" result="shape"/>
</filter>
<filter id="filter1_i" x="42" y="13" width="172" height="230" filterUnits="userSpaceOnUse" color-interpolation-filters="sRGB">
<feFlood flood-opacity="0" result="BackgroundImageFix"/>
<feBlend mode="normal" in="SourceGraphic" in2="BackgroundImageFix" result="shape"/>
<feColorMatrix in="SourceAlpha" type="matrix" values="0 0 0 0 0 0 0 0 0 0 0 0 0 0 0 0 0 0 127 0" result="hardAlpha"/>
<feOffset dy="4"/>
<feComposite in2="hardAlpha" operator="arithmetic" k2="-1" k3="1"/>
<feColorMatrix type="matrix" values="0 0 0 0 0.717647 0 0 0 0 0.580392 0 0 0 0 0.956863 0 0 0 1 0"/>
<feBlend mode="normal" in2="shape" result="effect1_innerShadow"/>
</filter>
<filter id="filter2_d" x="77.75" y="95.2188" width="100.328" height="74.25" filterUnits="userSpaceOnUse" color-interpolation-filters="sRGB">
<feFlood flood-opacity="0" result="BackgroundImageFix"/>
<feColorMatrix in="SourceAlpha" type="matrix" values="0 0 0 0 0 0 0 0 0 0 0 0 0 0 0 0 0 0 127 0" result="hardAlpha"/>
<feOffset dx="1" dy="3"/>
<feComposite in2="hardAlpha" operator="out"/>
<feColorMatrix type="matrix" values="0 0 0 0 0.501961 0 0 0 0 0.352941 0 0 0 0 0.835294 0 0 0 1 0"/>
<feBlend mode="normal" in2="BackgroundImageFix" result="effect1_dropShadow"/>
<feBlend mode="normal" in="SourceGraphic" in2="effect1_dropShadow" result="shape"/>
</filter>
<filter id="filter3_di" x="150" y="13" width="48" height="79" filterUnits="userSpaceOnUse" color-interpolation-filters="sRGB">
<feFlood flood-opacity="0" result="BackgroundImageFix"/>
<feColorMatrix in="SourceAlpha" type="matrix" values="0 0 0 0 0 0 0 0 0 0 0 0 0 0 0 0 0 0 127 0" result="hardAlpha"/>
<feOffset dy="4"/>
<feComposite in2="hardAlpha" operator="out"/>
<feColorMatrix type="matrix" values="0 0 0 0 0.501961 0 0 0 0 0.352941 0 0 0 0 0.835294 0 0 0 1 0"/>
<feBlend mode="normal" in2="BackgroundImageFix" result="effect1_dropShadow"/>
<feBlend mode="normal" in="SourceGraphic" in2="effect1_dropShadow" result="shape"/>
<feColorMatrix in="SourceAlpha" type="matrix" values="0 0 0 0 0 0 0 0 0 0 0 0 0 0 0 0 0 0 127 0" result="hardAlpha"/>
<feOffset dy="4"/>
<feComposite in2="hardAlpha" operator="arithmetic" k2="-1" k3="1"/>
<feColorMatrix type="matrix" values="0 0 0 0 0.960784 0 0 0 0 0.396078 0 0 0 0 0.396078 0 0 0 1 0"/>
<feBlend mode="normal" in2="shape" result="effect2_innerShadow"/>
</filter>
<linearGradient id="paint0_linear" x1="128" y1="13" x2="128" y2="243" gradientUnits="userSpaceOnUse">
<stop stop-color="#9F7AEA"/>
<stop offset="1" stop-color="#6B46C1" stop-opacity="0.6"/>
</linearGradient>
<clipPath id="clip0">
<rect width="256" height="256" fill="white"/>
</clipPath>
</defs>
</svg>
