<svg width="32" height="32" viewBox="0 0 32 32" fill="none" xmlns="http://www.w3.org/2000/svg">
<g filter="url(#filter0_i)">
<rect x="4" width="24" height="32" rx="2" fill="#9F7AEA"/>
<rect x="4" width="24" height="32" rx="2" fill="url(#paint0_linear)"/>
</g>
<rect x="4.5" y="0.5" width="23" height="31" rx="1.5" stroke="#6B46C1"/>
<g filter="url(#filter1_d)">
<path d="M11.9688 12.0859C11.8542 12.2057 11.724 12.3047 11.5781 12.3828C11.4323 12.4557 11.2786 12.5026 11.1172 12.5234C10.9557 12.5391 10.8021 12.513 10.6562 12.4453C10.5156 12.3776 10.3932 12.2812 10.2891 12.1562C10.0651 11.8958 9.95312 11.6328 9.95312 11.3672C9.95312 11.1016 9.99479 10.9036 10.0781 10.7734C10.1667 10.638 10.276 10.5286 10.4062 10.4453C10.6562 10.2839 10.8906 10.2031 11.1094 10.2031C11.3333 10.2031 11.5052 10.2188 11.625 10.25C11.75 10.2812 11.8646 10.3333 11.9688 10.4062C12.224 10.5781 12.3516 10.7891 12.3516 11.0391C12.3516 11.2839 12.3151 11.4896 12.2422 11.6562C12.1745 11.8177 12.0833 11.9609 11.9688 12.0859ZM10.3672 20.5391C10.5026 20.5391 10.5703 20.6276 10.5703 20.8047C10.5703 21.0391 10.4635 21.2812 10.25 21.5312C9.9375 21.8958 9.51823 22.0781 8.99219 22.0781C8.38802 22.0781 7.97396 21.8333 7.75 21.3438C7.66667 21.1719 7.625 20.9635 7.625 20.7188C7.625 20.474 7.66667 20.2031 7.75 19.9062C7.83854 19.6042 7.94531 19.2891 8.07031 18.9609C8.20052 18.6276 8.34115 18.2917 8.49219 17.9531L8.90625 16.9688C9.20833 16.2344 9.35938 15.75 9.35938 15.5156C9.35938 15.2812 9.33333 15.1276 9.28125 15.0547C9.23438 14.9766 9.18229 14.9167 9.125 14.875L8.96875 14.7656C8.91667 14.7292 8.89062 14.6667 8.89062 14.5781C8.89062 14.4844 8.92448 14.3958 8.99219 14.3125C9.0651 14.2292 9.15885 14.1562 9.27344 14.0938C9.50781 13.974 9.78125 13.9141 10.0938 13.9141C10.8594 13.9141 11.2422 14.1146 11.2422 14.5156C11.2422 14.9844 11.1198 15.5208 10.875 16.125C10.6302 16.724 10.4219 17.2083 10.25 17.5781L9.78125 18.6562C9.4375 19.4479 9.26562 20.0182 9.26562 20.3672C9.26562 20.5964 9.38021 20.7109 9.60938 20.7109C9.83333 20.7109 10.0026 20.6823 10.1172 20.625C10.2318 20.5677 10.3151 20.5391 10.3672 20.5391ZM18.2188 15.3906C17.9167 15.3906 17.3646 15.8281 16.5625 16.7031C15.9635 17.3854 15.5286 17.8984 15.2578 18.2422L14.5547 19.1328C14.2526 19.7057 14.0156 20.1823 13.8438 20.5625L13.4219 21.4688C13.3125 21.6927 13.2161 21.8516 13.1328 21.9453C13.0547 22.0339 12.9453 22.0781 12.8047 22.0781C12.6693 22.0781 12.5365 22.0521 12.4062 22C12.2812 21.9531 12.1719 21.8906 12.0781 21.8125C11.8802 21.6458 11.7812 21.4635 11.7812 21.2656C11.7812 21.1875 11.8385 21.0339 11.9531 20.8047L12.25 20.1719C12.3438 19.9844 12.4531 19.7448 12.5781 19.4531L13.0156 18.3828C13.6302 16.8464 13.9375 15.8542 13.9375 15.4062C13.9375 15.1667 13.8594 14.9896 13.7031 14.875L13.5469 14.7656C13.4948 14.7292 13.4688 14.6667 13.4688 14.5781C13.4688 14.4844 13.5026 14.3958 13.5703 14.3125C13.6432 14.2292 13.737 14.1562 13.8516 14.0938C14.0859 13.974 14.3203 13.9141 14.5547 13.9141C14.7943 13.9141 14.9818 13.9401 15.1172 13.9922C15.2526 14.0443 15.3698 14.1146 15.4688 14.2031C15.6667 14.3854 15.7656 14.5755 15.7656 14.7734C15.7656 14.9714 15.7396 15.1719 15.6875 15.375C15.6354 15.5729 15.5703 15.776 15.4922 15.9844C15.4141 16.1875 15.3307 16.3854 15.2422 16.5781C15.0339 17.026 14.9036 17.3021 14.8516 17.4062C14.8047 17.5052 14.7917 17.5417 14.8125 17.5156C15.7656 16.2812 16.3385 15.5521 16.5312 15.3281C16.9323 14.8646 17.2448 14.5469 17.4688 14.375C17.8802 14.0677 18.2682 13.9141 18.6328 13.9141C19.0026 13.9141 19.2969 14.0286 19.5156 14.2578C19.7344 14.487 19.8438 14.7891 19.8438 15.1641C19.8438 15.4922 19.7604 15.8776 19.5938 16.3203C19.4271 16.763 19.3151 17.0729 19.2578 17.25L20.4062 15.7344L21.0469 14.9688C21.4323 14.5365 21.7708 14.2526 22.0625 14.1172C22.3542 13.9818 22.5911 13.9141 22.7734 13.9141C22.9609 13.9141 23.1432 13.9479 23.3203 14.0156C23.5026 14.0833 23.6562 14.1797 23.7812 14.3047C24.0469 14.5599 24.1797 14.8984 24.1797 15.3203C24.1797 15.7266 24.0859 16.1432 23.8984 16.5703C23.7109 16.9974 23.5469 17.349 23.4062 17.625C23.2656 17.8958 23.1302 18.1693 23 18.4453C22.6198 19.2734 22.4297 19.888 22.4297 20.2891C22.4297 20.5703 22.5443 20.7109 22.7734 20.7109C22.9922 20.7109 23.1901 20.6641 23.3672 20.5703C23.5495 20.4766 23.6667 20.4297 23.7188 20.4297C23.8281 20.4297 23.8828 20.4844 23.8828 20.5938C23.8828 21.0573 23.6458 21.4453 23.1719 21.7578C22.8542 21.9714 22.5625 22.0781 22.2969 22.0781C22.0365 22.0781 21.8255 22.0469 21.6641 21.9844C21.5026 21.9219 21.3568 21.8229 21.2266 21.6875C20.9349 21.3854 20.7891 21.0078 20.7891 20.5547C20.7891 20.1016 20.8464 19.6849 20.9609 19.3047C21.0755 18.9245 21.2109 18.5573 21.3672 18.2031C21.5234 17.8438 21.6797 17.5156 21.8359 17.2188C21.9974 16.9167 22.1198 16.6771 22.2031 16.5C22.3698 16.1354 22.4531 15.8672 22.4531 15.6953C22.4531 15.4922 22.3464 15.3906 22.1328 15.3906C21.8516 15.3906 21.3464 15.8568 20.6172 16.7891C20.0651 17.513 19.6823 18.0339 19.4688 18.3516L18.9297 19.1328C18.6276 19.7057 18.3958 20.1823 18.2344 20.5625L17.8359 21.4688C17.737 21.6927 17.651 21.8516 17.5781 21.9453C17.5052 22.0339 17.4036 22.0781 17.2734 22.0781C17.1432 22.0781 17.0156 22.0573 16.8906 22.0156C16.7708 21.974 16.6667 21.9193 16.5781 21.8516C16.375 21.7005 16.2734 21.5417 16.2734 21.375C16.2734 21.2031 16.3281 20.9714 16.4375 20.6797C16.5521 20.3828 16.6927 20.0521 16.8594 19.6875L17.9531 17.375C18.3438 16.5156 18.5391 15.9714 18.5391 15.7422C18.5391 15.5078 18.4323 15.3906 18.2188 15.3906ZM18.9922 17.5938C18.9974 17.5938 19 17.5911 19 17.5859L19.0078 17.5703C18.9974 17.5807 18.9922 17.5885 18.9922 17.5938Z" fill="white"/>
</g>
<g filter="url(#filter2_di)">
<path d="M19 0H26V11L22.5 9L19 11V0Z" fill="#E53E3E"/>
<path d="M22.2519 8.56588L19.5 10.1384V0.5H25.5V10.1384L22.7481 8.56588L22.5 8.42412L22.2519 8.56588Z" stroke="#9B2C2C"/>
</g>
<defs>
<filter id="filter0_i" x="4" y="0" width="24" height="32" filterUnits="userSpaceOnUse" color-interpolation-filters="sRGB">
<feFlood flood-opacity="0" result="BackgroundImageFix"/>
<feBlend mode="normal" in="SourceGraphic" in2="BackgroundImageFix" result="shape"/>
<feColorMatrix in="SourceAlpha" type="matrix" values="0 0 0 0 0 0 0 0 0 0 0 0 0 0 0 0 0 0 127 0" result="hardAlpha"/>
<feOffset dy="2"/>
<feComposite in2="hardAlpha" operator="arithmetic" k2="-1" k3="1"/>
<feColorMatrix type="matrix" values="0 0 0 0 0.717647 0 0 0 0 0.580392 0 0 0 0 0.956863 0 0 0 1 0"/>
<feBlend mode="normal" in2="shape" result="effect1_innerShadow"/>
</filter>
<filter id="filter1_d" x="7.625" y="10.2031" width="16.5547" height="12.875" filterUnits="userSpaceOnUse" color-interpolation-filters="sRGB">
<feFlood flood-opacity="0" result="BackgroundImageFix"/>
<feColorMatrix in="SourceAlpha" type="matrix" values="0 0 0 0 0 0 0 0 0 0 0 0 0 0 0 0 0 0 127 0" result="hardAlpha"/>
<feOffset dy="1"/>
<feComposite in2="hardAlpha" operator="out"/>
<feColorMatrix type="matrix" values="0 0 0 0 0.501961 0 0 0 0 0.352941 0 0 0 0 0.835294 0 0 0 1 0"/>
<feBlend mode="normal" in2="BackgroundImageFix" result="effect1_dropShadow"/>
<feBlend mode="normal" in="SourceGraphic" in2="effect1_dropShadow" result="shape"/>
</filter>
<filter id="filter2_di" x="19" y="0" width="7" height="12" filterUnits="userSpaceOnUse" color-interpolation-filters="sRGB">
<feFlood flood-opacity="0" result="BackgroundImageFix"/>
<feColorMatrix in="SourceAlpha" type="matrix" values="0 0 0 0 0 0 0 0 0 0 0 0 0 0 0 0 0 0 127 0" result="hardAlpha"/>
<feOffset dy="1"/>
<feComposite in2="hardAlpha" operator="out"/>
<feColorMatrix type="matrix" values="0 0 0 0 0.501961 0 0 0 0 0.352941 0 0 0 0 0.835294 0 0 0 1 0"/>
<feBlend mode="normal" in2="BackgroundImageFix" result="effect1_dropShadow"/>
<feBlend mode="normal" in="SourceGraphic" in2="effect1_dropShadow" result="shape"/>
<feColorMatrix in="SourceAlpha" type="matrix" values="0 0 0 0 0 0 0 0 0 0 0 0 0 0 0 0 0 0 127 0" result="hardAlpha"/>
<feOffset dy="2"/>
<feComposite in2="hardAlpha" operator="arithmetic" k2="-1" k3="1"/>
<feColorMatrix type="matrix" values="0 0 0 0 0.960784 0 0 0 0 0.396078 0 0 0 0 0.396078 0 0 0 1 0"/>
<feBlend mode="normal" in2="shape" result="effect2_innerShadow"/>
</filter>
<linearGradient id="paint0_linear" x1="16" y1="0" x2="16" y2="32" gradientUnits="userSpaceOnUse">
<stop stop-color="#9F7AEA"/>
<stop offset="1" stop-color="#6B46C1" stop-opacity="0.2"/>
</linearGradient>
</defs>
</svg>
